# xmcd
#
# Track frame offsets: 
#        150
#        14572
#        24410
#        37361
#        55576
#        71195
#        80692
#        95784
#        108613
#        118711
#        127720
#        140140
#        153920
#        169337
#        177474
#        189214
#        200903
#        214028
#
# Disc length: 3007 seconds
#
# Revision: 0
# Processed by: cddbd v1.5.2PL0 Copyright (c) Steve Scherf et al.
# Submitted via: ExactAudioCopy v0.99pb3
#
DISCID=100bbd12
DTITLE=The Moody Blues - An Introduction To The Moody Blues
DYEAR=2000
DGENRE=Blues
TTITLE0=go now
TTITLE1=i'll go crazy
TTITLE2=something you got
TTITLE3=can't nobody love you
TTITLE4=i don't mind
TTITLE5=stop
TTITLE6=it ain't necessarily so
TTITLE7=bye bye bird
TTITLE8=steal your heart away
TTITLE9=lose your money (but not your mind)
TTITLE10=i don't want to go on without you
TTITLE11=time is on my side
TTITLE12=from the bottom of my heart (i love you)
TTITLE13=everyday
TTITLE14=this is my house (but nobody calls)
TTITLE15=life's not life
TTITLE16=boulevard de la madelaine
TTITLE17=people gotta go
EXTD=
EXTT0=
EXTT1=
EXTT2=
EXTT3=
EXTT4=
EXTT5=
EXTT6=
EXTT7=
EXTT8=
EXTT9=
EXTT10=
EXTT11=
EXTT12=
EXTT13=
EXTT14=
EXTT15=
EXTT16=
EXTT17=
PLAYORDER=
